<svg width="1198" height="432" viewBox="0 0 1198 432" fill="none" xmlns="http://www.w3.org/2000/svg">
<path opacity="0.2" d="M1 278.768V21C1 9.95431 9.95427 1 21 1H1177C1188.05 1 1197 9.95432 1197 21V278.768C1197 289.813 1188.05 298.768 1177 298.768H980.536C969.49 298.768 960.536 307.722 960.536 318.768V411C960.536 422.046 951.582 431 940.536 431H252.578C241.533 431 232.578 422.046 232.578 411V318.768C232.578 307.722 223.624 298.768 212.578 298.768H21C9.9543 298.768 1 289.813 1 278.768Z" stroke="black" stroke-width="2"/>
</svg>
