<svg width="121" height="34" viewBox="0 0 121 34" fill="none" xmlns="http://www.w3.org/2000/svg">
<mask id="mask0_498_4353" style="mask-type:luminance" maskUnits="userSpaceOnUse" x="0" y="0" width="121" height="34">
<path d="M120.999 0.140625H0.726562V33.8941H120.999V0.140625Z" fill="white"/>
</mask>
<g mask="url(#mask0_498_4353)">
<path fill-rule="evenodd" clip-rule="evenodd" d="M92.2547 30.8666C92.2547 32.4031 91.0449 33.5778 89.521 33.5778C88.0422 33.5778 86.8323 32.4031 86.8323 30.8666V2.85175C86.8323 1.36063 87.9977 0.140625 89.521 0.140625C91.0449 0.140625 92.2547 1.36063 92.2547 2.85175V30.8666ZM39.6161 3.34901C39.6161 4.97571 38.2718 6.06014 36.524 6.06014C34.7768 6.06014 33.4324 4.97571 33.4324 3.34901V3.0779C33.4324 1.45124 34.7768 0.411975 36.524 0.411975C38.2718 0.411975 39.6161 1.45124 39.6161 3.0779V3.34901ZM28.0616 29.6467C25.104 32.2674 21.7435 33.8941 16.6796 33.8941C7.53767 33.8941 0.726562 26.7097 0.726562 17.6274V17.537C0.726562 8.54512 7.40376 1.17989 16.9035 1.17989C21.7435 1.17989 24.9251 2.62584 27.6588 4.7495C28.2412 5.20139 28.7341 5.96951 28.7341 6.96361C28.7341 8.49993 27.5243 9.67474 26.0004 9.67474C25.2385 9.67474 24.7011 9.40364 24.3427 9.13253C22.1914 7.3703 19.8612 6.28582 16.8591 6.28582C10.8988 6.28582 6.50735 11.2563 6.50735 17.4466V17.537C6.50735 23.7274 10.8538 28.743 16.8591 28.743C20.1746 28.743 22.4153 27.6585 24.7011 25.7155C25.104 25.3541 25.687 25.083 26.3589 25.083C27.7482 25.083 28.9581 26.2578 28.9581 27.6585C28.9581 28.5171 28.5546 29.1948 28.0616 29.6467ZM36.5258 33.5778C38.049 33.5778 39.2594 32.4031 39.2594 30.8666V11.9792C39.2594 10.4429 38.049 9.22292 36.5258 9.22292C35.0019 9.22292 33.8371 10.4429 33.8371 11.9792V30.8666C33.8371 32.4031 35.0469 33.5778 36.5258 33.5778ZM50.7257 30.8666C50.7257 32.3578 49.5152 33.5778 47.992 33.5778C46.5131 33.5778 45.3033 32.4031 45.3033 30.8666V11.9792C45.3033 10.4429 46.4681 9.22292 47.992 9.22292C49.5152 9.22292 50.7257 10.4429 50.7257 11.9792V14.4192C51.9799 11.437 54.3101 9.17772 56.6854 9.17772C58.3881 9.17772 59.374 10.3073 59.374 11.8889C59.374 13.3347 58.4332 14.2837 57.2233 14.5096C53.3693 15.1873 50.7257 18.1696 50.7257 23.8177V30.8666ZM72.9014 33.8941C76.845 33.8941 79.3991 32.5385 81.5054 30.5053C81.9983 30.0985 82.2673 29.5111 82.2673 28.7882C82.2673 27.4778 81.2364 26.3933 79.9371 26.3933C79.3097 26.3933 78.7717 26.7097 78.4583 26.9808C76.9795 28.246 75.3217 29.1045 73.1704 29.1045C69.003 29.1045 66.0903 25.7155 66.0903 21.4681V21.3777C66.0903 17.2207 69.003 13.7865 72.9465 13.7865C75.0972 13.7865 76.621 14.6451 78.0104 15.8199C78.3688 16.0911 78.9512 16.3622 79.6237 16.3622C81.0124 16.3622 82.1328 15.2777 82.1328 13.877C82.1328 12.9732 81.6399 12.2955 81.2814 11.9792C79.2647 10.217 76.7105 8.99695 72.9915 8.99695C65.8664 8.99695 60.668 14.6903 60.668 21.4681V21.5586C60.668 28.3363 65.8664 33.8941 72.9014 33.8941ZM109.146 33.8941C112.82 33.8941 115.509 32.6741 117.659 30.7311C118.063 30.3244 118.377 29.737 118.377 29.0593C118.377 27.794 117.436 26.8452 116.226 26.8452C115.598 26.8452 115.24 27.0259 114.836 27.3422C113.313 28.6073 111.52 29.4207 109.235 29.4207C105.74 29.4207 103.006 27.2518 102.424 23.3659H117.257C118.645 23.3659 119.811 22.2815 119.811 20.7451C119.811 15.2325 116.091 8.99689 108.563 8.99689C101.797 8.99689 97.0016 14.5999 97.0016 21.4229V21.5132C97.0016 28.8784 102.289 33.8941 109.146 33.8941ZM102.379 19.7511H114.523C114.164 16.2267 112.103 13.4704 108.518 13.4704C105.202 13.4704 102.872 16.046 102.379 19.7511Z" fill="black"/>
</g>
</svg>
