<svg width="174" height="42" viewBox="0 0 174 42" fill="none" xmlns="http://www.w3.org/2000/svg">
<mask id="mask0_498_4346" style="mask-type:luminance" maskUnits="userSpaceOnUse" x="0" y="0" width="174" height="42">
<path d="M173.212 0H0V42H173.212V0Z" fill="white"/>
</mask>
<g mask="url(#mask0_498_4346)">
<path d="M0.101562 30.8812L6.29402 26.1523C9.58404 30.4327 13.0795 32.4057 16.9703 32.4057C20.8402 32.4057 24.2368 30.456 27.3786 26.2094L33.6595 30.8242C29.1263 36.9479 23.493 40.1835 16.9703 40.1835C10.4683 40.1835 4.78037 36.9686 0.101562 30.8812Z" fill="url(#paint0_linear_498_4346)"/>
<path d="M16.953 10.3284L5.9309 19.7966L0.835938 13.9062L16.9764 0.0410156L32.9894 13.9166L27.8711 19.7862L16.953 10.3284Z" fill="url(#paint1_linear_498_4346)"/>
<path d="M57.4125 34.3438C53.6491 34.3438 50.5126 33.1279 47.969 30.696C45.4254 28.2305 44.1719 25.0701 44.1719 21.2123C44.1719 17.3234 45.4593 14.1268 48.0028 11.6249C50.5828 9.08934 53.7193 7.83975 57.4489 7.83975C62.0494 7.83975 66.125 9.81789 68.4967 12.9109L64.3464 17.2534C62.3592 15.1327 60.1979 14.0568 57.865 14.0568C55.878 14.0568 54.2395 14.7153 52.8793 16.0712C51.5555 17.4272 50.8949 19.1305 50.8949 21.1786C50.8949 23.1593 51.5555 24.8264 52.8793 26.1823C54.2395 27.502 55.878 28.1605 57.8286 28.1605C60.3721 28.1605 62.6033 27.0483 64.4501 24.8601L68.7728 28.9953C67.5867 30.5587 65.9846 31.8446 63.9974 32.8505C62.0109 33.859 59.8157 34.3438 57.4099 34.3438H57.4125ZM76.0863 7.45601V33.9627H69.9536V7.45601H76.0863ZM81.8991 13.0819C79.8444 13.0819 78.346 11.5886 78.346 9.54046C78.346 7.55971 79.9143 6.06641 81.8991 6.06641C83.8857 6.06641 85.4202 7.55971 85.4202 9.54046C85.4202 11.5886 83.8857 13.0845 81.8991 13.0845V13.0819ZM85.0013 14.7853V33.9627H78.8325V14.7853H85.0013ZM96.8094 34.3801C93.7765 34.3801 91.3373 33.4416 89.423 31.5646C87.5401 29.6902 86.5987 27.292 86.5987 24.339C86.5987 21.3861 87.5401 18.9905 89.4568 17.1134C91.3734 15.2364 93.847 14.3005 96.9131 14.3005C100.921 14.3005 104.442 16.2449 106.078 19.8927L101.165 22.4646C100.19 20.8312 98.8297 19.9964 97.0535 19.9964C95.7637 19.9964 94.7179 20.4138 93.8808 21.2486C93.4832 21.6583 93.171 22.1423 92.9618 22.6726C92.7527 23.2029 92.6502 23.7692 92.6609 24.339C92.6609 26.8746 94.5076 28.7516 96.9836 28.7516C98.7598 28.7516 100.398 27.7794 101.095 26.286L106.011 29.2027C104.336 32.3994 100.887 34.3801 96.8094 34.3801ZM127.402 33.9627H120.081L114.398 26.3535L113.493 27.1883V33.9627H107.363V7.45601H113.496V20.3438L119.28 14.7853H126.773L118.515 22.4983L127.402 33.9627ZM127.813 23.9916V8.28827H134.365V23.8879C134.365 26.7709 136.037 28.1605 138.443 28.1605C140.812 28.1605 142.484 26.7009 142.484 23.8879V8.28827H149.072V23.9916C149.072 31.5646 143.808 34.4139 138.443 34.4139C133.111 34.4139 127.813 31.5646 127.813 23.9916ZM163.631 14.3005C166.385 14.3005 168.617 15.2727 170.393 17.2172C172.169 19.1279 173.041 21.526 173.041 24.339C173.041 27.1546 172.136 29.5501 170.359 31.5309C168.58 33.4753 166.351 34.4501 163.667 34.4501C161.54 34.4501 159.694 33.7553 158.195 32.3657V41.8494H152.026V14.7853H158.092V16.5586C159.589 15.0627 161.436 14.3005 163.631 14.3005ZM166.768 24.409C166.768 21.9071 164.957 19.9964 162.447 19.9964C159.938 19.9964 158.092 21.9071 158.092 24.409C158.092 25.6249 158.508 26.6672 159.311 27.5357C160.146 28.4042 161.191 28.8216 162.447 28.8216C163.701 28.8216 164.747 28.4042 165.548 27.5357C166.347 26.691 166.786 25.5699 166.77 24.409H166.768Z" fill="#111111"/>
</g>
<defs>
<linearGradient id="paint0_linear_498_4346" x1="0.101562" y1="35.6949" x2="33.6595" y2="35.6949" gradientUnits="userSpaceOnUse">
<stop stop-color="#8930FD"/>
<stop offset="1" stop-color="#49CCF9"/>
</linearGradient>
<linearGradient id="paint1_linear_498_4346" x1="0.835938" y1="13.4768" x2="32.9894" y2="13.4768" gradientUnits="userSpaceOnUse">
<stop stop-color="#FF02F0"/>
<stop offset="1" stop-color="#FFC800"/>
</linearGradient>
</defs>
</svg>
