<svg width="59" height="39" viewBox="0 0 59 39" fill="none" xmlns="http://www.w3.org/2000/svg">
<path d="M7.5 11.4V7.6H11.25V3.8H0V0H15V19H0V15.2H11.25V11.4H7.5Z" fill="#0A0A0A"/>
<path d="M37 19H18V0H37V19ZM33.2 3.8H21.8V15.2H33.2V3.8Z" fill="#0A0A0A"/>
<path d="M59 19H40V0H59V19ZM55.2 3.8H43.8V15.2H55.2V3.8Z" fill="#0A0A0A"/>
<path d="M0 22L17 39H0V22Z" fill="#0A0A0A"/>
<path d="M17 22V39H0L17 22Z" fill="#0A0A0A"/>
<path d="M29 25L41 39H29.025L29 25Z" fill="#0A0A0A"/>
<path d="M41 36V22L29 22.0001L41 36Z" fill="#0A0A0A"/>
<path d="M44 22H54C56.761 22 59 24.2833 59 27.0999V33.8999C59 36.7167 56.761 39 54 39H44V22Z" fill="#0A0A0A"/>
<path d="M20 22H25V39H20V22Z" fill="#0A0A0A"/>
</svg>
