<svg width="249" height="35" viewBox="0 0 249 35" fill="none" xmlns="http://www.w3.org/2000/svg">
<mask id="mask0_498_4328" style="mask-type:luminance" maskUnits="userSpaceOnUse" x="0" y="0" width="249" height="35">
<path d="M248.126 0.804688H0.289062V34.6046H248.126V0.804688Z" fill="white"/>
</mask>
<g mask="url(#mask0_498_4328)">
<path d="M171.395 14.064C171.395 9.90404 168.854 6.91406 164.154 6.91406H148.656V28.494H153.737V21.084H159.708L165.551 28.494H171.268V27.974L165.551 20.954C169.235 20.174 171.395 17.444 171.395 14.064ZM163.519 16.664H153.737V11.334H163.519C165.297 11.334 166.44 12.374 166.44 14.064C166.567 15.754 165.425 16.664 163.519 16.664Z" fill="black"/>
<path d="M248.127 6.78516H243.427V14.9751H230.597V6.78516H225.516V28.3651H230.597V19.9151H243.427V28.3651H248.127V6.78516Z" fill="black"/>
<path d="M135.063 6.78516L129.474 24.8551H129.22L123.503 6.78516H114.484V28.3651H119.311V10.6851H119.565L125.155 28.3651H132.904L138.62 10.6851H138.874V28.3651H143.828V6.78516H135.063Z" fill="black"/>
<path d="M79.8138 15.6256C78.0356 15.4956 74.7323 15.1056 72.8269 14.9756C71.0487 14.8456 70.0324 14.1956 70.0324 13.0256C70.0324 11.8556 71.1759 10.9456 75.4948 10.9456C79.3056 10.9456 82.8627 11.8556 86.0381 13.2856V8.47562C82.9899 6.91565 79.56 6.26562 75.2405 6.26562C69.2705 6.26562 65.0781 8.86561 65.0781 13.1556C65.0781 16.7956 67.4917 18.8756 72.446 19.3956C74.2242 19.6556 77.2731 19.9156 79.3056 20.0456C81.592 20.1756 82.2273 20.9556 82.2273 21.9956C82.2273 23.4255 80.5757 24.3355 76.6383 24.3355C72.5731 24.3355 68.3808 22.9056 65.3325 21.0856V26.0255C67.7461 27.7156 71.8106 29.0156 76.5111 29.0156C82.9899 29.0156 87.1816 26.4156 87.1816 21.8656C87.1816 18.3556 85.0219 16.1456 79.8138 15.6256Z" fill="black"/>
<path d="M90.6094 6.78516V28.3651H110.172V23.9451H95.4365V19.5251H109.918V15.1051H95.4365V11.2051H110.172V6.78516H90.6094Z" fill="black"/>
<path d="M214.97 15.6256C213.192 15.4956 209.889 15.1056 207.983 14.9756C206.205 14.8456 205.189 14.1956 205.189 13.0256C205.189 11.8556 206.332 10.9456 210.651 10.9456C214.462 10.9456 218.019 11.7256 221.194 13.2856V8.47562C218.146 6.91565 214.716 6.26562 210.397 6.26562C204.426 6.26562 200.234 8.86561 200.234 13.1556C200.234 16.7956 202.648 18.8756 207.602 19.3956C209.38 19.6556 212.429 19.9156 214.462 20.0456C216.748 20.1756 217.384 20.9556 217.384 21.9956C217.384 23.4255 215.732 24.3355 211.794 24.3355C207.729 24.3355 203.537 22.9056 200.489 21.0856V26.0255C202.902 27.7156 206.967 29.0156 211.667 29.0156C218.146 29.0156 222.338 26.4156 222.338 21.8656C222.338 18.3556 220.052 16.1456 214.97 15.6256Z" fill="black"/>
<path d="M191.726 6.78516V17.8351C191.726 21.9951 189.185 24.3351 185.501 24.3351C181.69 24.3351 179.276 22.1251 179.276 17.8351V6.78516H174.195V17.3151C174.195 25.1151 179.022 29.0151 185.501 29.0151C191.853 29.0151 196.68 25.2451 196.68 17.5751V6.78516H191.726Z" fill="black"/>
<path d="M47.7987 17.4446C47.7987 18.4846 47.2906 18.6146 46.0205 18.6146C44.6232 18.6146 44.3689 18.3546 44.2417 17.3146C43.9879 14.5846 42.2097 12.2446 39.1608 12.1147C38.2717 11.9846 38.0173 11.7247 38.0173 10.4246C38.0173 9.25465 38.1445 8.73464 39.0336 8.73464C44.1151 8.86466 47.7987 13.1546 47.7987 17.4446ZM55.2937 17.4446C55.2937 9.38467 49.9585 0.804688 37.5092 0.804688H12.9921C12.484 0.804688 12.103 1.06469 12.103 1.58468C12.103 1.84469 12.2302 2.10468 12.484 2.23468C13.3737 3.01468 14.6438 3.79465 16.422 4.70465C18.0736 5.61465 19.4709 6.13466 20.7415 6.65467C21.2497 6.91464 21.5034 7.17467 21.5034 7.43465C21.5034 7.82464 21.2497 8.21463 20.6143 8.21463H1.17875C0.54342 8.08467 0.289062 8.47467 0.289062 8.86466C0.289062 9.25465 0.416247 9.51468 0.670617 9.77466C2.19446 11.4646 4.7352 13.5446 8.41941 15.8846C11.5949 17.9646 15.6601 20.1746 18.8355 21.7346C19.3437 21.9946 19.598 22.2546 19.598 22.6446C19.598 23.0346 19.3437 23.2946 18.7089 23.2946H9.68948C9.18133 23.2946 8.92756 23.5546 8.92756 23.9446C8.92756 24.2046 9.05415 24.4646 9.30852 24.7246C11.3411 26.6746 14.6438 28.6246 18.9627 30.5746C24.8061 33.0445 30.6495 34.6046 37.2554 34.6046C49.8313 34.6046 55.2937 24.9846 55.2937 17.4446ZM38.9064 29.0146C32.8093 29.0146 27.6012 23.9446 27.6012 17.4446C27.6012 11.2047 32.6821 6.13466 38.9064 6.13466C45.258 6.13466 50.2123 11.2047 50.2123 17.4446C50.2123 23.8146 45.258 29.0146 38.9064 29.0146Z" fill="#FF642D"/>
</g>
</svg>
