<svg width="178" height="42" viewBox="0 0 178 42" fill="none" xmlns="http://www.w3.org/2000/svg">
<mask id="mask0_498_4340" style="mask-type:luminance" maskUnits="userSpaceOnUse" x="0" y="0" width="178" height="42">
<path d="M177.456 0H0.664062V41.4101H177.456V0Z" fill="white"/>
</mask>
<g mask="url(#mask0_498_4340)">
<path d="M23.7862 15.2626H34.4014V34.4689H0.664062V15.2626H11.2793V24.846H23.7476V15.2626H23.7862ZM59.6852 25.0826C59.6852 28.356 57.6003 30.2491 54.7053 30.2491C51.8877 30.2491 49.7647 28.3166 49.7647 25.0826V9.62293H45.0553V25.0432C45.0553 31.1167 49.3012 34.9816 54.744 34.9816C60.2254 34.9816 64.4308 31.1167 64.4308 25.0432V9.62293H59.7238V25.0826H59.6852ZM76.5551 16.7612C74.7365 16.7612 72.7336 17.55 71.6875 19.3641V17.2345H67.2895V34.4689H71.8421V24.5305C71.8421 22.5192 73.001 20.9416 75.0098 20.9416C77.2088 20.9416 78.1359 22.4403 78.1359 24.3728V34.4295H82.6885V23.584C82.6528 19.7979 80.7213 16.7612 76.5551 16.7612ZM93.2675 24.0179C93.2675 24.0179 91.7222 23.7023 90.7594 23.5051C89.7966 23.3079 89.2141 22.7952 89.2141 21.967C89.2141 20.9811 90.0641 20.2712 91.2587 20.2712C92.9584 20.2712 93.6181 21.1388 93.7726 22.2037H97.7071C97.6655 19.8374 95.8528 16.7612 91.3359 16.7612C87.7105 16.7612 85.0479 19.3247 85.0479 22.4009C85.0479 24.8066 86.51 26.8179 89.755 27.5278L92.0729 28.0405C93.3863 28.3166 93.8855 28.9476 93.8855 29.7364C93.8855 30.6434 93.0772 31.4322 91.5676 31.4322C89.755 31.4322 88.7505 30.3673 88.5188 29.1448H84.4655C84.6973 31.7082 86.51 34.9816 91.6093 34.9816C96.0073 34.9816 98.2479 32.1027 98.2479 29.3025C98.2836 26.7785 96.5897 24.7277 93.2675 24.0179ZM117.664 25.7926C117.664 30.9984 114.461 34.8633 109.712 34.8633C107.395 34.8633 105.659 33.9168 104.851 32.7731V41.0946H100.292V17.2345H104.696V19.3641C105.463 18.0232 107.317 16.8401 109.867 16.8401C114.806 16.8401 117.664 20.705 117.664 25.7926ZM113.183 25.832C113.183 22.7952 111.335 21.0205 109.017 21.0205C106.699 21.0205 104.809 22.7952 104.809 25.832C104.809 28.8687 106.699 30.6829 109.017 30.6829C111.335 30.6829 113.183 28.9082 113.183 25.832ZM139.435 17.2345H143.833V34.4689H139.28V32.3393C138.507 33.7196 136.73 34.8633 134.418 34.8633C129.67 34.8633 126.466 30.9984 126.466 25.7926C126.466 20.6656 129.319 16.8401 134.222 16.8401C136.772 16.8401 138.585 18.0232 139.399 19.3641V17.2345H139.435ZM139.357 25.832C139.357 22.7952 137.467 21.0205 135.149 21.0205C132.832 21.0205 130.983 22.7952 130.983 25.832C130.983 28.9082 132.832 30.6829 135.149 30.6829C137.467 30.6829 139.357 28.8687 139.357 25.832ZM119.786 34.4295H124.339V9.62293H119.786V34.4295ZM170.892 16.7612C169.276 16.7612 167.421 17.3133 166.34 18.6542V9.62293H161.787V34.4295H166.34V24.3333C166.452 22.4403 167.576 20.9811 169.507 20.9811C171.706 20.9811 172.633 22.4797 172.633 24.4122V34.4689H177.186V23.6234C177.15 19.7979 175.177 16.7612 170.892 16.7612ZM154.685 24.0179C154.685 24.0179 153.14 23.7023 152.171 23.5051C151.208 23.3079 150.632 22.7952 150.632 21.967C150.632 20.9811 151.476 20.2712 152.676 20.2712C154.376 20.2712 155.03 21.1388 155.184 22.2037H159.119C159.083 19.8374 157.27 16.7612 152.753 16.7612C149.122 16.7612 146.459 19.3247 146.459 22.4009C146.459 24.8066 147.927 26.8179 151.166 27.5278L153.484 28.0405C154.798 28.3166 155.297 28.9476 155.297 29.7364C155.297 30.6434 154.489 31.4322 152.985 31.4322C151.167 31.4322 150.168 30.3673 149.936 29.1448H145.883C146.115 31.7082 147.927 34.9816 153.021 34.9816C157.425 34.9816 159.659 32.1027 159.659 29.3025C159.701 26.7785 158.001 24.7277 154.685 24.0179ZM23.7862 0H11.2793V9.62293H23.7476V0H23.7862Z" fill="black"/>
</g>
</svg>
