<svg width="148" height="39" viewBox="0 0 148 39" fill="none" xmlns="http://www.w3.org/2000/svg">
<mask id="mask0_498_4323" style="mask-type:luminance" maskUnits="userSpaceOnUse" x="0" y="0" width="148" height="39">
<path d="M147.755 0.417969H0V38.9917H147.755V0.417969Z" fill="white"/>
</mask>
<g mask="url(#mask0_498_4323)">
<path d="M47.71 15.5022C47.71 12.7509 45.1326 9.82899 40.6723 9.82899C35.6637 9.82899 30.1615 13.6427 29.3206 21.2512C28.4615 28.9356 33.068 32.3509 37.711 32.3509C42.3541 32.3509 44.7853 30.4725 47.2713 27.9679C45.1326 25.1788 42.3723 26.469 41.8422 26.7536C41.2573 27.0572 40.5078 27.4746 38.9723 27.4746C37.1809 27.4746 35.3529 26.6398 35.3529 23.1676C46.8326 21.9912 47.71 18.2533 47.71 15.5022ZM42.025 15.9575C41.9519 16.8113 41.6229 18.2723 35.8099 19.0882C37.0346 14.5724 39.3745 14.2309 40.453 14.2309C41.4584 14.2309 42.0982 15.0468 42.025 15.9575ZM22.5755 16.6975C22.5755 16.6975 20.1076 24.7424 19.9066 25.4065C19.8335 24.7234 18.0238 10.2844 18.0238 10.2844C13.8195 10.2844 11.5711 13.3961 10.3829 16.6785C10.3829 16.6785 7.38501 24.7424 7.12909 25.4254C7.11079 24.7993 6.67212 16.7734 6.67212 16.7734C6.4162 12.7509 2.86991 10.3034 0 10.3034L3.47315 32.1801C7.87854 32.1611 10.2549 29.0684 11.4979 25.7859C11.4979 25.7859 14.1485 18.6708 14.2582 18.3482C14.2764 18.6518 16.1593 32.1801 16.1593 32.1801C20.5829 32.1801 22.9593 29.2771 24.2389 26.1085L30.4357 10.3034C26.0669 10.3034 23.7636 13.3961 22.5755 16.6975ZM63.9421 9.79101C61.2189 9.79101 59.1348 11.3279 57.38 13.5858V13.5668L58.9521 0.417969C55.3326 0.417969 52.3896 3.68147 51.823 8.53874L49.081 32.0094C51.1649 32.0094 53.3767 31.3832 54.5649 29.7894C55.6252 31.2125 57.2154 32.3509 59.5732 32.3509C65.6787 32.3509 69.8652 24.989 69.8652 18.0826C69.8283 11.7833 66.8852 9.79101 63.9421 9.79101ZM63.3757 21.0804C62.7356 24.9321 60.6704 27.5505 58.6778 27.5505C56.6671 27.5505 55.8079 26.6208 55.8079 26.6208C56.1918 23.2435 56.4295 21.1753 57.1606 19.3918C57.8918 17.6082 59.6285 14.7622 61.4382 14.7622C63.2111 14.7622 64.0152 17.2098 63.3757 21.0804ZM85.1102 10.3034H80.8512L80.8697 10.0756C81.1621 7.19164 81.82 5.67373 83.9952 5.42703C85.4757 5.27528 86.1342 4.47836 86.2982 3.60557C86.4266 2.92251 86.8283 0.550786 86.8283 0.550786C78.2736 0.493867 75.5867 4.32657 74.8919 10.1705L74.8735 10.3034H74.782C73.3931 10.3034 71.8573 11.9351 71.6018 14.0032L71.5102 14.7622H74.3618L71.9673 35.2918L71.2363 38.9727C71.3272 38.9727 71.4371 38.9917 71.5287 38.9917C75.5314 38.8399 78.0906 35.5575 78.6576 30.795L80.522 14.7622H81.8562C83.1727 14.7622 84.7084 13.3961 84.9824 11.1192L85.1102 10.3034ZM107.265 9.92383C102.348 9.92383 97.7051 13.6806 96.2793 19.5815C94.8535 25.4824 97.0103 32.4647 104.249 32.4647C111.47 32.4647 115.638 25.1978 115.638 19.1451C115.638 13.1304 111.707 9.92383 107.265 9.92383ZM109.258 20.8907C109.002 23.566 107.869 27.6264 104.761 27.6264C101.635 27.6264 102.074 22.883 102.385 20.6251C102.713 18.2154 104.011 14.7812 106.808 14.7812C109.313 14.7812 109.55 17.8739 109.258 20.8907ZM139.931 16.6975C139.931 16.6975 137.464 24.7424 137.262 25.4065C137.189 24.7234 135.379 10.2844 135.379 10.2844C131.175 10.2844 128.927 13.3961 127.739 16.6785C127.739 16.6785 124.741 24.7424 124.485 25.4254C124.466 24.7993 124.028 16.7734 124.028 16.7734C123.772 12.7509 120.226 10.3034 117.356 10.3034L120.811 32.1801C125.216 32.1611 127.592 29.0684 128.835 25.7859C128.835 25.7859 131.486 18.6708 131.577 18.3482C131.614 18.6518 133.479 32.1801 133.479 32.1801C137.902 32.1801 140.278 29.2771 141.558 26.1085L147.755 10.3034C143.404 10.3034 141.101 13.3961 139.931 16.6975ZM89.132 0.550786L85.5488 30.5484L84.8177 34.2483C84.9093 34.2483 85.0186 34.2672 85.1102 34.2672C88.9673 34.2103 91.7095 30.7002 92.2212 26.2792L94.2865 9.07001C94.9082 3.81428 91.892 0.550786 89.132 0.550786Z" fill="black"/>
</g>
</svg>
